<svg xmlns="http://www.w3.org/2000/svg" viewBox="0 0 32 32" width="32" height="32">
  <!-- Alpha helix: coiled ribbon / spring viewed from side -->
  <path d="M7 2 C14 2, 14 9, 7 9 C0 9, 0 16, 7 16 C14 16, 14 23, 7 23 C0 23, 0 30, 7 30"
        stroke="#000" stroke-width="2.5" fill="none" stroke-linecap="round"/>
  <!-- Beta sheet: 3 arrow-shaped strands -->
  <polygon points="18,3 24,3 24,1 29,6 24,11 24,9 18,9" fill="#000"/>
  <polygon points="18,12 24,12 24,10 29,15 24,20 24,18 18,18" fill="#000"/>
  <polygon points="18,22 24,22 24,20 29,25 24,30 24,28 18,28" fill="#000"/>
</svg>
